<?xml version="1.0" encoding="UTF-8" standalone="no"?>
<!-- Created with Inkscape (http://www.inkscape.org/) -->

<svg
   version="1.1"
   id="svg9"
   width="1365.3333"
   height="1365.3333"
   viewBox="0 0 1365.3333 1365.3333"
   sodipodi:docname="icon.svg"
   inkscape:version="1.1.2 (b8e25be833, 2022-02-05)"
   xmlns:inkscape="http://www.inkscape.org/namespaces/inkscape"
   xmlns:sodipodi="http://sodipodi.sourceforge.net/DTD/sodipodi-0.dtd"
   xmlns="http://www.w3.org/2000/svg"
   xmlns:svg="http://www.w3.org/2000/svg">
  <defs
     id="defs13" />
  <sodipodi:namedview
     id="namedview11"
     pagecolor="#505050"
     bordercolor="#eeeeee"
     borderopacity="1"
     inkscape:pageshadow="0"
     inkscape:pageopacity="0"
     inkscape:pagecheckerboard="0"
     showgrid="false"
     inkscape:zoom="0.58593753"
     inkscape:cx="681.81329"
     inkscape:cy="682.66663"
     inkscape:window-width="1920"
     inkscape:window-height="1009"
     inkscape:window-x="-8"
     inkscape:window-y="-8"
     inkscape:window-maximized="1"
     inkscape:current-layer="g15" />
  <g
     inkscape:groupmode="layer"
     inkscape:label="Image"
     id="g15">
    <path
       style="fill:#000000;stroke-width:2.12305"
       d="m 418.64602,1364.8302 c -162.59848,-1.9832 -334.5594,-6.1786 -332.4677,-8.1113 0.336064,-0.3104 34.12527,-1.5853 75.08709,-2.833 40.96185,-1.2477 92.71177,-3.6392 114.99982,-5.3144 45.70623,-3.4353 126.49735,-8.3642 170.98963,-10.432 19.56426,-0.9092 31.09956,-2.339 33.79236,-4.1886 2.24859,-1.5446 3.66752,-3.1608 3.15297,-3.5914 -0.51438,-0.4308 -14.73525,-6.132 -31.60195,-12.6695 -68.05153,-26.3767 -126.88762,-58.0817 -173.90613,-93.7123 -40.40811,-30.6214 -46.95213,-37.3745 -31.85383,-32.8717 28.16246,8.399 82.20043,16.1172 124.71251,17.8124 144.85427,5.776 327.28391,-48.6541 456.91859,-136.3275 28.75833,-19.4495 56.03021,-42.9642 57.35748,-49.4553 0.65631,-3.2102 0.91754,-6.1006 0.58041,-6.423 -0.33726,-0.3223 -8.38233,2.7583 -17.87803,6.8455 -42.73393,18.3952 -116.99457,37.1421 -179.35995,45.2792 -17.31421,2.259 -48.34034,3.7816 -90.90457,4.461 -90.13241,1.4389 -143.90894,-3.7655 -216.8568,-20.9873 C 247.11718,1020.6072 146.62688,969.63522 86.191925,902.56773 39.560473,850.81862 13.012795,787.41428 4.6875524,707.9092 0.3052621,666.05877 4.0247439,602.65351 13.387324,559.60595 c 4.821577,-22.16893 18.651919,-71.0369 21.880579,-77.31279 2.648691,-5.14852 6.880725,-16.1921 17.742129,-46.29856 C 63.045961,408.17622 65.38412,403.17298 90.592207,355.57558 110.96688,317.10455 140.27444,273.6882 167.97503,240.94038 192.27035,212.21834 251.07342,158.13692 280.71242,137.2554 395.05381,56.698588 518.71081,14.297449 664.52647,5.6481962 718.85994,2.4253369 800.47186,7.5483754 847.97861,17.164055 c 86.67884,17.544348 182.89869,58.527068 253.68699,108.052335 25.5233,17.85679 63.4571,52.72313 80.4237,73.92045 15.9079,19.87479 32.1967,49.20678 37.2601,67.09641 1.9218,6.79046 4.0506,21.61676 4.7305,32.94738 1.0138,16.89858 0.4034,23.69368 -3.396,37.80799 -11.7097,43.49935 -46.225,77.37651 -93.738,92.0052 -17.5942,5.4171 -22.1439,5.96598 -48.9677,5.90801 -27.3789,-0.0592 -30.989,-0.53572 -48.6927,-6.42773 -29.98097,-9.97813 -45.66423,-20.09237 -86.25097,-55.62382 -40.81921,-35.73489 -59.15774,-49.30402 -86.68213,-64.13809 -53.81712,-29.00435 -107.52515,-42.12822 -171.56411,-41.92264 -127.25617,0.40857 -240.61542,58.66273 -313.46521,161.08687 -72.11792,101.39512 -89.86659,217.12363 -50.79115,331.1792 38.01919,110.9726 128.10227,199.83993 245.23796,241.92808 28.16953,10.1217 80.91453,22.6624 112.44698,26.7355 35.13721,4.5388 98.66032,3.1586 135.10342,-2.9356 44.26852,-7.4028 88.94662,-23.0313 121.18191,-42.38974 25.87887,-15.54113 55.60118,-44.74832 78.9348,-77.56667 16.9173,-23.79393 37.8583,-63.47595 39.2709,-74.41568 0.9254,-7.16852 0.1246,-8.67859 -9.0201,-17.02835 -20.8896,-19.07193 -57.76685,-35.36898 -93.11008,-41.14784 -24.21075,-3.95861 -66.54913,-3.06565 -90.6268,1.91137 -52.59533,10.87189 -104.7908,40.49605 -142.50613,80.88121 -8.32304,8.91208 -16.79228,18.5118 -18.82071,21.33271 l -3.68821,5.12896 0.87219,-7.20199 c 7.98049,-65.90197 16.45713,-95.0309 41.01798,-140.95337 69.19259,-129.37191 183.91061,-203.16486 323.62836,-208.17556 43.8333,-1.57199 71.2946,1.27746 101.3018,10.5113 47.6051,14.64916 85.5615,36.85965 119.4137,69.87605 42.1522,41.11152 66.9311,85.67025 80.7892,145.27876 5.6285,24.21008 5.6554,95.03417 0.045,123.08779 -22.6537,113.31036 -93.7476,224.44465 -203.0515,317.41065 -64.6784,55.0108 -138.3585,97.9216 -220.55918,128.4515 l -26.77378,9.9442 11.44043,3.5381 c 8.35164,2.583 25.92999,4.1866 65.10699,5.9396 29.51674,1.3207 81.75944,4.229 116.09514,6.4628 34.3357,2.2339 89.0427,5.0122 121.5714,6.1736 32.5284,1.1617 68.507,2.8089 79.9522,3.6609 l 20.8095,1.549 -33.9523,1.4786 c -90.9408,3.9605 -240.0588,5.775 -519.14213,6.3166 -168.06401,0.3264 -327.74945,0.3228 -354.85656,-0.015 z"
       id="path135" />
  </g>
</svg>
