<?xml version="1.0" encoding="UTF-8" standalone="no"?>
<!-- Created with Inkscape (http://www.inkscape.org/) -->

<svg
   version="1.1"
   id="svg9"
   width="1365.3333"
   height="1365.3333"
   viewBox="0 0 1365.3333 1365.3333"
   sodipodi:docname="icon_2.svg"
   inkscape:version="1.1.2 (b8e25be833, 2022-02-05)"
   xmlns:inkscape="http://www.inkscape.org/namespaces/inkscape"
   xmlns:sodipodi="http://sodipodi.sourceforge.net/DTD/sodipodi-0.dtd"
   xmlns="http://www.w3.org/2000/svg"
   xmlns:svg="http://www.w3.org/2000/svg">
  <defs
     id="defs13" />
  <sodipodi:namedview
     id="namedview11"
     pagecolor="#505050"
     bordercolor="#eeeeee"
     borderopacity="1"
     inkscape:pageshadow="0"
     inkscape:pageopacity="0"
     inkscape:pagecheckerboard="0"
     showgrid="false"
     inkscape:zoom="0.58593753"
     inkscape:cx="681.81329"
     inkscape:cy="836.26662"
     inkscape:window-width="1920"
     inkscape:window-height="1009"
     inkscape:window-x="-8"
     inkscape:window-y="-8"
     inkscape:window-maximized="1"
     inkscape:current-layer="g15" />
  <g
     inkscape:groupmode="layer"
     inkscape:label="Image"
     id="g15">
    <path
       style="fill:#000000;stroke-width:2.1346"
       d="m 461.13157,1338.9162 c -90.05789,-24.2406 -135.42095,-65.6166 -182.43946,-101.6359 -40.40811,-30.9555 -46.95213,-37.7823 -31.85383,-33.2304 28.16246,8.4907 82.20043,16.2931 124.71251,18.0068 144.85427,5.839 327.28391,-49.1849 456.91859,-137.8149 28.75833,-19.6617 56.03021,-43.4329 57.35748,-49.9948 0.65631,-3.2452 0.91754,-6.1672 0.58041,-6.4931 -0.33726,-0.3258 -8.38233,2.7884 -17.87803,6.9202 -42.73393,18.5959 -116.99457,37.5473 -179.35995,45.7732 -17.31421,2.2836 -48.34034,3.8228 -90.90457,4.5097 -90.13241,1.4546 -143.90894,-3.8066 -216.8568,-21.2163 C 247.11718,1031.691 146.62688,980.16291 86.191925,912.3637 39.560473,860.05001 13.012795,795.95392 4.6875524,715.58143 0.3052621,673.27441 4.0247439,609.1774 13.387324,565.66018 c 4.821577,-22.41079 18.651919,-71.81192 21.880579,-78.15628 2.648691,-5.20469 6.880725,-16.36875 17.742129,-46.80368 10.035929,-28.12188 12.374088,-33.1797 37.582175,-81.2964 20.374673,-38.89075 49.682233,-82.78077 77.382823,-115.88587 24.29532,-29.0354 83.09839,-83.70686 112.73739,-104.8162 C 395.05381,57.26606 518.71081,14.402321 664.52647,5.6587046 718.85994,2.4006836 800.47186,7.5796149 847.97861,17.300202 934.65745,35.035961 1030.8773,76.465805 1101.6656,126.5314 c 25.5233,18.05161 63.4571,53.29834 80.4237,74.72693 15.9079,20.09162 32.1967,49.74363 37.2601,67.82843 1.9218,6.86455 4.0506,21.8526 4.7305,33.30684 1.0138,17.08295 0.4034,23.95218 -3.396,38.22048 -11.7097,43.97393 -46.225,78.22069 -93.738,93.00898 -17.5942,5.4762 -22.1439,6.03107 -48.9677,5.97247 -27.3789,-0.0598 -30.989,-0.54156 -48.6927,-6.49786 -29.98097,-10.08699 -45.66423,-20.31158 -86.25097,-56.23068 -40.81921,-36.12476 -59.15774,-49.84193 -86.68213,-64.83784 -53.81712,-29.32079 -107.52515,-42.58784 -171.56411,-42.38002 -127.25617,0.41303 -240.61542,59.30275 -313.46521,162.84434 -72.11792,102.50135 -89.86659,219.49247 -50.79115,334.79239 38.01919,112.18333 128.10227,202.0202 245.23796,244.56754 28.16953,10.2321 80.91453,22.9096 112.44698,27.0272 35.13721,4.5883 98.66032,3.193 135.10342,-2.9676 44.26852,-7.4836 88.94662,-23.2826 121.18191,-42.85226 25.87887,-15.71068 55.60118,-45.23652 78.9348,-78.41293 16.9173,-24.05352 37.8583,-64.16847 39.2709,-75.22756 0.9254,-7.24673 0.1246,-8.77327 -9.0201,-17.21413 -20.8896,-19.28 -57.76685,-35.75486 -93.11008,-41.59676 -24.21075,-4.0018 -66.54913,-3.0991 -90.6268,1.93222 -52.59533,10.9905 -104.7908,40.93786 -142.50613,81.76363 -8.32304,9.00931 -16.79228,18.71377 -18.82071,21.56545 l -3.68821,5.18492 0.87219,-7.28056 c 7.98049,-66.62097 16.45713,-96.0677 41.01798,-142.49119 69.19259,-130.78337 183.91061,-205.3814 323.62836,-210.44677 43.8333,-1.58914 71.2946,1.2914 101.3018,10.62598 47.6051,14.80898 85.5615,37.26179 119.4137,70.6384 42.1522,41.56005 66.9311,86.60492 80.7892,146.86377 5.6285,24.47421 5.6554,96.071 0.045,124.43068 -22.6537,114.54659 -93.7476,226.89341 -203.0515,320.87361 -64.6784,55.611 -133.2385,93.8141 -215.43918,124.6771 -127.54711,37.8965 -272.88104,42.8845 -482.38185,9.9696 z"
       id="path135"
       sodipodi:nodetypes="csssssscsssssssssssssssssssssssssssssssscsssscsssssscscc" />
  </g>
</svg>
